<?xml version="1.0" encoding="UTF-8" standalone="no"?>
<!DOCTYPE svg PUBLIC "-//W3C//DTD SVG 1.1//EN"
 "http://www.w3.org/Graphics/SVG/1.1/DTD/svg11.dtd">
<!-- Generated by graphviz version 14.0.5 (20251129.0259)
 -->
<!-- Title: GRAPH Pages: 1 -->
<svg width="667pt" height="210pt"
 viewBox="0.00 0.00 667.00 210.00" xmlns="http://www.w3.org/2000/svg" xmlns:xlink="http://www.w3.org/1999/xlink">
<g id="graph0" class="graph" transform="scale(1 1) rotate(0) translate(4 206)">
<title>GRAPH</title>
<polygon fill="white" stroke="none" points="-4,4 -4,-206 663.25,-206 663.25,4 -4,4"/>
<!-- 0.7 -->
<g id="node1" class="node">
<title>0.7</title>
<polygon fill="none" stroke="black" points="532.75,-164.5 532.75,-200.5 659.25,-200.5 659.25,-164.5 532.75,-164.5"/>
<text xml:space="preserve" text-anchor="middle" x="561" y="-177.7" font-family="Times,serif" font-size="14.00">label: n</text>
<polyline fill="none" stroke="black" points="589.25,-165 589.25,-200.5"/>
<text xml:space="preserve" text-anchor="middle" x="624.25" y="-177.7" font-family="Times,serif" font-size="14.00">value: 0.7</text>
</g>
<!-- +n -->
<g id="node2" class="node">
<title>+n</title>
<ellipse fill="none" stroke="black" cx="469.75" cy="-182.5" rx="27" ry="18"/>
<text xml:space="preserve" text-anchor="middle" x="469.75" y="-177.45" font-family="Times,serif" font-size="14.00">+</text>
</g>
<!-- +n&#45;&gt;0.7 -->
<g id="edge1" class="edge">
<title>+n&#45;&gt;0.7</title>
<path fill="none" stroke="black" d="M497.1,-182.5C504.33,-182.5 512.54,-182.5 521.06,-182.5"/>
<polygon fill="black" stroke="black" points="520.87,-186 530.87,-182.5 520.87,-179 520.87,-186"/>
</g>
<!-- &#45;6 -->
<g id="node3" class="node">
<title>&#45;6</title>
<polygon fill="none" stroke="black" points="256.25,-110.5 256.25,-146.5 406.75,-146.5 406.75,-110.5 256.25,-110.5"/>
<text xml:space="preserve" text-anchor="middle" x="299.5" y="-123.7" font-family="Times,serif" font-size="14.00">label: x1*w1</text>
<polyline fill="none" stroke="black" points="342.75,-111 342.75,-146.5"/>
<text xml:space="preserve" text-anchor="middle" x="374.75" y="-123.7" font-family="Times,serif" font-size="14.00">value: &#45;6</text>
</g>
<!-- &#45;6&#45;&gt;+n -->
<g id="edge3" class="edge">
<title>&#45;6&#45;&gt;+n</title>
<path fill="none" stroke="black" d="M382.12,-146.93C390.37,-150.07 398.81,-153.34 406.75,-156.5 416.26,-160.29 426.53,-164.53 435.92,-168.47"/>
<polygon fill="black" stroke="black" points="434.48,-171.66 445.05,-172.33 437.2,-165.21 434.48,-171.66"/>
</g>
<!-- +x1*w1 +  -->
<g id="node4" class="node">
<title>+x1*w1 + </title>
<ellipse fill="none" stroke="black" cx="469.75" cy="-128.5" rx="27" ry="18"/>
<text xml:space="preserve" text-anchor="middle" x="469.75" y="-123.45" font-family="Times,serif" font-size="14.00">+</text>
</g>
<!-- &#45;6&#45;&gt;+x1*w1 +  -->
<g id="edge9" class="edge">
<title>&#45;6&#45;&gt;+x1*w1 + </title>
<path fill="none" stroke="black" d="M407,-121.78C415.75,-121.85 424.35,-122.07 432.23,-122.44"/>
<polygon fill="black" stroke="black" points="431.86,-125.93 442.05,-123.03 432.28,-118.94 431.86,-125.93"/>
</g>
<!-- +x1*w1 + &#45;&gt;&#45;6 -->
<g id="edge2" class="edge">
<title>+x1*w1 + &#45;&gt;&#45;6</title>
<path fill="none" stroke="black" d="M443.56,-133.88C436.07,-134.44 427.41,-134.83 418.3,-135.04"/>
<polygon fill="black" stroke="black" points="418.46,-131.54 408.52,-135.2 418.57,-138.54 418.46,-131.54"/>
</g>
<!-- 0 -->
<g id="node5" class="node">
<title>0</title>
<polygon fill="none" stroke="black" points="270.12,-55.5 270.12,-91.5 392.88,-91.5 392.88,-55.5 270.12,-55.5"/>
<text xml:space="preserve" text-anchor="middle" x="301.75" y="-68.7" font-family="Times,serif" font-size="14.00">label: x2</text>
<polyline fill="none" stroke="black" points="333.38,-56 333.38,-91.5"/>
<text xml:space="preserve" text-anchor="middle" x="363.12" y="-68.7" font-family="Times,serif" font-size="14.00">value: 0</text>
</g>
<!-- 0&#45;&gt;+x1*w1 +  -->
<g id="edge5" class="edge">
<title>0&#45;&gt;+x1*w1 + </title>
<path fill="none" stroke="black" d="M382.56,-91.99C390.67,-95.09 398.96,-98.34 406.75,-101.5 416.47,-105.45 426.96,-109.93 436.5,-114.09"/>
<polygon fill="black" stroke="black" points="434.82,-117.18 445.38,-118 437.64,-110.77 434.82,-117.18"/>
</g>
<!-- *x2*w2 -->
<g id="node6" class="node">
<title>*x2*w2</title>
<ellipse fill="none" stroke="black" cx="469.75" cy="-73.5" rx="27" ry="18"/>
<text xml:space="preserve" text-anchor="middle" x="469.75" y="-68.45" font-family="Times,serif" font-size="14.00">*</text>
</g>
<!-- 0&#45;&gt;*x2*w2 -->
<g id="edge7" class="edge">
<title>0&#45;&gt;*x2*w2</title>
<path fill="none" stroke="black" d="M393.05,-66.79C406.38,-66.66 420.1,-66.87 432.13,-67.44"/>
<polygon fill="black" stroke="black" points="431.83,-70.93 442.02,-68.03 432.25,-63.94 431.83,-70.93"/>
</g>
<!-- *x2*w2&#45;&gt;0 -->
<g id="edge4" class="edge">
<title>*x2*w2&#45;&gt;0</title>
<path fill="none" stroke="black" d="M443.53,-78.88C432.29,-79.72 418.42,-80.17 404.35,-80.24"/>
<polygon fill="black" stroke="black" points="404.58,-76.74 394.57,-80.22 404.56,-83.74 404.58,-76.74"/>
</g>
<!-- 1 -->
<g id="node7" class="node">
<title>1</title>
<polygon fill="none" stroke="black" points="268.62,-0.5 268.62,-36.5 394.38,-36.5 394.38,-0.5 268.62,-0.5"/>
<text xml:space="preserve" text-anchor="middle" x="301.75" y="-13.7" font-family="Times,serif" font-size="14.00">label: w2</text>
<polyline fill="none" stroke="black" points="334.88,-1 334.88,-36.5"/>
<text xml:space="preserve" text-anchor="middle" x="364.62" y="-13.7" font-family="Times,serif" font-size="14.00">value: 1</text>
</g>
<!-- 1&#45;&gt;*x2*w2 -->
<g id="edge6" class="edge">
<title>1&#45;&gt;*x2*w2</title>
<path fill="none" stroke="black" d="M384.62,-36.89C392.08,-39.68 399.64,-42.6 406.75,-45.5 416.61,-49.51 427.2,-54.17 436.8,-58.52"/>
<polygon fill="black" stroke="black" points="435.19,-61.63 445.74,-62.62 438.11,-55.27 435.19,-61.63"/>
</g>
<!-- *x1*w1 -->
<g id="node8" class="node">
<title>*x1*w1</title>
<ellipse fill="none" stroke="black" cx="193.25" cy="-128.5" rx="27" ry="18"/>
<text xml:space="preserve" text-anchor="middle" x="193.25" y="-123.45" font-family="Times,serif" font-size="14.00">*</text>
</g>
<!-- *x1*w1&#45;&gt;&#45;6 -->
<g id="edge8" class="edge">
<title>*x1*w1&#45;&gt;&#45;6</title>
<path fill="none" stroke="black" d="M220.52,-128.5C227.67,-128.5 235.83,-128.5 244.39,-128.5"/>
<polygon fill="black" stroke="black" points="244.32,-132 254.32,-128.5 244.32,-125 244.32,-132"/>
</g>
<!-- &#45;3 -->
<g id="node9" class="node">
<title>&#45;3</title>
<polygon fill="none" stroke="black" points="0,-138.5 0,-174.5 130.25,-174.5 130.25,-138.5 0,-138.5"/>
<text xml:space="preserve" text-anchor="middle" x="33.12" y="-151.7" font-family="Times,serif" font-size="14.00">label: w1</text>
<polyline fill="none" stroke="black" points="66.25,-139 66.25,-174.5"/>
<text xml:space="preserve" text-anchor="middle" x="98.25" y="-151.7" font-family="Times,serif" font-size="14.00">value: &#45;3</text>
</g>
<!-- &#45;3&#45;&gt;*x1*w1 -->
<g id="edge10" class="edge">
<title>&#45;3&#45;&gt;*x1*w1</title>
<path fill="none" stroke="black" d="M130.67,-142.17C139.38,-140.24 148.06,-138.31 156.03,-136.54"/>
<polygon fill="black" stroke="black" points="156.65,-139.99 165.65,-134.4 155.13,-133.16 156.65,-139.99"/>
</g>
<!-- 2 -->
<g id="node10" class="node">
<title>2</title>
<polygon fill="none" stroke="black" points="3.75,-83.5 3.75,-119.5 126.5,-119.5 126.5,-83.5 3.75,-83.5"/>
<text xml:space="preserve" text-anchor="middle" x="35.38" y="-96.7" font-family="Times,serif" font-size="14.00">label: x1</text>
<polyline fill="none" stroke="black" points="67,-84 67,-119.5"/>
<text xml:space="preserve" text-anchor="middle" x="96.75" y="-96.7" font-family="Times,serif" font-size="14.00">value: 2</text>
</g>
<!-- 2&#45;&gt;*x1*w1 -->
<g id="edge11" class="edge">
<title>2&#45;&gt;*x1*w1</title>
<path fill="none" stroke="black" d="M126.97,-114.53C136.98,-116.67 147.07,-118.83 156.21,-120.79"/>
<polygon fill="black" stroke="black" points="155.23,-124.16 165.75,-122.83 156.7,-117.31 155.23,-124.16"/>
</g>
<!-- 6.7 -->
<g id="node11" class="node">
<title>6.7</title>
<polygon fill="none" stroke="black" points="268.25,-165.5 268.25,-201.5 394.75,-201.5 394.75,-165.5 268.25,-165.5"/>
<text xml:space="preserve" text-anchor="middle" x="296.5" y="-178.7" font-family="Times,serif" font-size="14.00">label: b</text>
<polyline fill="none" stroke="black" points="324.75,-166 324.75,-201.5"/>
<text xml:space="preserve" text-anchor="middle" x="359.75" y="-178.7" font-family="Times,serif" font-size="14.00">value: 6.7</text>
</g>
<!-- 6.7&#45;&gt;+n -->
<g id="edge12" class="edge">
<title>6.7&#45;&gt;+n</title>
<path fill="none" stroke="black" d="M395.04,-183.04C407.27,-182.95 419.74,-182.86 430.86,-182.78"/>
<polygon fill="black" stroke="black" points="430.83,-186.28 440.81,-182.71 430.78,-179.28 430.83,-186.28"/>
</g>
</g>
</svg>
